# xmcd CD database file
#
# Track frame offsets:
#	150
#	25072
#	39567
#	58306
#	86961
#	106364
#	122907
#	151877
#	170495
#	188451
#	231975
#	249346
#
# Disc length: 3640 seconds
#
# Revision: 0
# Processed by: cddbd v1.5.1PL0 Copyright (c) Steve Scherf et al.
# Submitted via: CDex 1.51
#
DISCID=9b0e360c
DTITLE=Memphis Gold - The Prodigal Son
DYEAR=2004
DGENRE=Blues
TTITLE0=Come Wit Me
TTITLE1=Don't Let Her Ride
TTITLE2=Crabcakes
TTITLE3=Big Leg Woman
TTITLE4=Podigal Son
TTITLE5=Chicken It
TTITLE6=3's Tonic
TTITLE7=Preacher Blues
TTITLE8=Test Drive That Woman
TTITLE9=Serves Me Right
TTITLE10=Melt Down Baby
TTITLE11=Bedroom Mumba
EXTD=YEAR: 2004
EXTT0=
EXTT1=
EXTT2=
EXTT3=
EXTT4=
EXTT5=
EXTT6=
EXTT7=
EXTT8=
EXTT9=
EXTT10=
EXTT11=
PLAYORDER=
